Normalized EMG Linear Envelopes
nRows=105
nColumns=4

endheader
time	 med_gas_r	  soleus_r	 tib_ant_r	
2.93448	  0.016944	  0.015101	  0.008445	
3.00605	  0.016084	  0.015389	  0.008703	
3.07762	  0.015539	  0.015531	  0.008870	
3.14919	  0.015435	  0.015464	  0.008986	
3.22077	  0.015580	  0.015238	  0.009199	
3.29234	  0.015705	  0.015041	  0.009531	
3.36391	  0.015818	  0.015019	  0.009787	
3.43548	  0.016068	  0.015061	  0.009784	
3.50706	  0.016312	  0.015019	  0.009595	
3.57863	  0.016158	  0.014973	  0.009444	
3.6502	  0.015509	  0.015036	  0.009460	
3.72177	  0.014808	  0.015189	  0.009586	
3.79335	  0.014588	  0.015417	  0.009663	
3.86492	  0.014912	  0.015704	  0.009610	
3.93649	  0.015382	  0.015976	  0.009518	
4.00806	  0.015613	  0.016240	  0.009603	
4.07964	  0.015559	  0.016673	  0.010054	
4.15121	  0.015464	  0.017425	  0.010858	
4.22278	  0.015578	  0.018386	  0.011725	
4.29435	  0.015887	  0.019293	  0.012296	
4.36593	  0.016273	  0.019960	  0.012367	
4.4375	  0.016808	  0.020186	  0.011840	
4.50907	  0.017553	  0.019631	  0.010729	
4.58065	  0.018108	  0.018129	  0.009473	
4.65222	  0.017840	  0.016362	  0.009019	
4.72379	  0.016884	  0.016347	  0.010659	
4.79536	  0.016546	  0.021457	  0.016202	
4.86694	  0.018522	  0.036094	  0.027972	
4.93851	  0.024002	  0.063561	  0.046820	
5.01008	  0.032751	  0.100437	  0.068844	
5.08165	  0.042566	  0.134193	  0.086767	
5.15323	  0.051827	  0.154694	  0.096993	
5.2248	  0.063088	  0.168420	  0.102163	
5.29637	  0.080436	  0.190636	  0.105856	
5.36794	  0.102289	  0.224628	  0.109966	
5.43952	  0.121558	  0.260581	  0.116752	
5.51109	  0.135774	  0.291217	  0.127399	
5.58266	  0.151757	  0.315703	  0.139427	
5.65423	  0.175781	  0.332304	  0.149230	
5.72581	  0.204953	  0.340753	  0.155505	
5.79738	  0.232878	  0.346498	  0.159039	
5.86895	  0.256167	  0.350616	  0.160967	
5.94052	  0.270826	  0.348156	  0.161737	
6.0121	  0.275580	  0.344456	  0.161634	
6.08367	  0.283773	  0.353854	  0.161462	
6.15524	  0.311461	  0.378249	  0.160679	
6.22681	  0.351023	  0.401971	  0.156678	
6.29839	  0.378815	  0.408694	  0.148508	
6.36996	  0.385705	  0.399073	  0.139663	
6.44153	  0.380233	  0.390541	  0.135608	
6.5131	  0.368161	  0.395748	  0.138417	
6.58468	  0.347139	  0.407896	  0.144966	
6.65625	  0.318854	  0.413805	  0.151313	
6.72782	  0.294867	  0.410212	  0.156580	
6.7994	  0.288925	  0.403671	  0.161854	
6.87097	  0.303802	  0.401971	  0.167056	
6.94254	  0.325309	  0.405182	  0.169814	
7.01411	  0.333281	  0.405017	  0.167891	
7.08569	  0.321033	  0.396173	  0.161424	
7.15726	  0.299129	  0.384461	  0.152835	
7.22883	  0.278711	  0.378358	  0.145610	
7.3004	  0.261583	  0.376960	  0.141986	
7.37198	  0.247440	  0.372679	  0.142191	
7.44355	  0.236639	  0.361718	  0.144866	
7.51512	  0.226269	  0.346792	  0.146636	
7.58669	  0.214643	  0.332962	  0.143883	
7.65827	  0.205333	  0.323388	  0.136002	
7.72984	  0.201176	  0.318225	  0.125740	
7.80141	  0.199532	  0.316653	  0.116407	
7.87298	  0.195604	  0.317919	  0.109764	
7.94456	  0.189430	  0.321465	  0.106991	
8.01613	  0.187484	  0.327696	  0.109381	
8.0877	  0.194610	  0.336518	  0.117099	
8.15927	  0.207690	  0.344956	  0.128702	
8.23085	  0.221100	  0.349664	  0.141933	
8.30242	  0.235486	  0.354114	  0.154324	
8.37399	  0.258021	  0.367420	  0.162830	
8.44556	  0.294520	  0.390255	  0.164008	
8.51714	  0.342066	  0.410214	  0.156529	
8.58871	  0.388610	  0.417147	  0.144394	
8.66028	  0.422526	  0.414854	  0.136384	
8.73185	  0.446946	  0.416410	  0.139830	
8.80343	  0.476240	  0.433928	  0.155150	
8.875	  0.512082	  0.467680	  0.176320	
8.94657	  0.537646	  0.502362	  0.193956	
9.01815	  0.541345	  0.517519	  0.200419	
9.08972	  0.531507	  0.504716	  0.195651	
9.16129	  0.523267	  0.479146	  0.186261	
9.23286	  0.520307	  0.465517	  0.177493	
9.30444	  0.511854	  0.468768	  0.168441	
9.37601	  0.486138	  0.472473	  0.156612	
9.44758	  0.445786	  0.463453	  0.143900	
9.51915	  0.407653	  0.449076	  0.136462	
9.59073	  0.390620	  0.448390	  0.140043	
9.6623	  0.401982	  0.464088	  0.153903	
9.73387	  0.428648	  0.475639	  0.169842	
9.80544	  0.445451	  0.467662	  0.178917	
9.87702	  0.436357	  0.445922	  0.177009	
9.94859	  0.402469	  0.416741	  0.164500	
10.0202	  0.351122	  0.372422	  0.144302	
10.0917	  0.288255	  0.306025	  0.120852	
10.1633	  0.220737	  0.224863	  0.098666	
10.2349	  0.155510	  0.145198	  0.080121	
10.3065	  0.095420	  0.078773	  0.065088	
10.378	  0.038552	  0.023779	  0.052002	
